<?xml version="1.0" standalone="no"?>
<!DOCTYPE svg PUBLIC "-//W3C//DTD SVG 20010904//EN"
 "http://www.w3.org/TR/2001/REC-SVG-20010904/DTD/svg10.dtd">
<svg version="1.0" xmlns="http://www.w3.org/2000/svg"
 width="940.000000pt" height="940.000000pt" viewBox="0 0 940.000000 940.000000"
 preserveAspectRatio="xMidYMid meet">
<metadata>
Created by potrace 1.14, written by Peter Selinger 2001-2017
</metadata>
<g transform="translate(0.000000,940.000000) scale(0.100000,-0.100000)"
fill="#000000" stroke="none">
<path d="M2405 7926 c-16 -7 -63 -18 -104 -25 -95 -17 -133 -33 -164 -71 -30
-35 -42 -37 -59 -10 -7 11 -17 20 -22 20 -5 0 -34 12 -64 26 -52 25 -65 26
-213 28 -129 1 -160 -2 -175 -15 -11 -8 -45 -23 -76 -33 -32 -9 -61 -23 -65
-30 -5 -7 -25 -19 -46 -26 -21 -6 -41 -19 -45 -29 -9 -23 -21 -34 -70 -56 -25
-12 -45 -29 -48 -42 -3 -12 -11 -20 -17 -17 -14 4 -28 -4 -42 -27 -43 -69 -67
-99 -80 -99 -9 0 -18 -8 -22 -17 -3 -10 -14 -27 -23 -38 -10 -11 -20 -32 -24
-48 -4 -15 -15 -36 -26 -47 -11 -11 -20 -24 -20 -30 0 -5 -3 -10 -8 -10 -8 0
-25 -38 -37 -80 -4 -14 -15 -34 -25 -45 -10 -11 -20 -31 -23 -45 -18 -80 -30
-120 -47 -157 -11 -24 -20 -58 -20 -77 0 -21 -6 -36 -15 -40 -12 -4 -15 -23
-14 -88 1 -46 0 -121 -2 -168 -5 -104 14 -236 39 -270 10 -14 26 -42 35 -62
10 -21 28 -43 40 -49 12 -7 26 -18 30 -25 10 -17 69 -18 85 -2 17 17 15 33
-12 91 -22 46 -25 65 -24 162 0 61 3 114 6 120 7 11 13 65 15 133 1 23 5 42 9
42 4 0 10 20 14 45 3 25 10 48 15 51 5 3 9 14 9 25 0 11 7 27 15 35 8 9 15 24
15 34 0 10 9 22 20 25 11 3 21 12 21 18 1 7 3 19 4 27 1 8 3 26 4 38 0 13 14
36 31 52 16 15 39 54 51 86 21 55 74 124 96 124 14 0 23 24 23 60 0 23 9 34
52 60 28 18 65 45 81 61 15 16 34 29 41 29 7 0 23 9 36 20 13 11 35 23 49 27
14 3 36 15 49 27 19 17 39 22 109 25 l85 3 49 -51 c27 -28 53 -51 57 -51 5 0
19 -12 33 -26 13 -15 42 -40 63 -55 35 -26 47 -29 116 -29 66 0 79 3 98 23 11
12 28 28 37 36 9 7 14 20 11 28 -3 8 3 34 14 58 11 24 20 49 20 54 0 6 5 11
11 11 6 0 26 12 45 26 31 24 41 26 91 21 37 -4 60 -12 66 -22 5 -9 21 -31 37
-48 31 -35 65 -120 83 -207 7 -30 16 -61 21 -69 12 -19 7 -142 -6 -159 -8 -9
-7 -29 0 -67 6 -30 9 -62 6 -70 -4 -8 -2 -21 4 -28 6 -6 14 -30 18 -52 4 -22
16 -52 27 -67 18 -25 27 -28 76 -28 46 0 59 4 83 27 15 15 28 34 28 44 0 9 7
22 15 29 8 7 15 20 15 29 0 9 5 22 12 29 9 9 12 58 12 170 -1 206 -12 288 -45
354 -5 10 -9 31 -9 46 0 41 -20 92 -35 92 -7 0 -16 13 -20 29 -8 39 -145 171
-177 171 -8 0 -18 4 -23 9 -18 16 -135 41 -193 41 -31 -1 -70 -7 -87 -14z"/>
<path d="M3015 6843 c-111 -12 -179 -29 -199 -48 -51 -47 -41 -163 17 -189 35
-17 112 -23 140 -11 20 9 23 -8 4 -27 -23 -23 -37 -55 -37 -88 0 -17 -10 -44
-21 -59 -12 -16 -19 -34 -15 -39 3 -5 1 -24 -5 -40 -9 -28 -7 -36 18 -69 15
-21 34 -43 42 -49 13 -10 79 -25 181 -40 26 -4 50 -14 57 -24 44 -63 231 -4
233 73 0 10 4 26 10 36 6 13 5 24 -5 37 -8 11 -15 25 -15 33 0 20 -47 60 -78
67 -73 15 -158 54 -119 54 12 0 17 8 17 30 0 20 9 39 25 54 27 25 48 72 39 87
-3 6 0 24 7 41 7 17 8 33 3 36 -5 4 -15 19 -23 34 -8 15 -22 30 -32 33 -9 3
-20 12 -23 20 -3 8 -12 15 -21 15 -8 0 -41 9 -72 20 -56 20 -67 21 -128 13z"/>
<path d="M7949 6686 c-2 -2 -40 -7 -84 -10 -80 -7 -175 -31 -175 -45 0 -4 -24
-16 -52 -26 -29 -10 -62 -24 -73 -29 -38 -21 -135 -97 -135 -106 0 -6 -11 -10
-25 -10 -15 0 -25 -6 -25 -15 0 -8 -11 -22 -25 -31 -14 -9 -25 -24 -25 -34 0
-10 -10 -20 -22 -24 -26 -7 -58 -64 -58 -101 0 -14 -4 -25 -9 -25 -5 0 -12
-11 -15 -25 -3 -13 -15 -32 -25 -42 -10 -10 -24 -43 -31 -73 -7 -30 -19 -77
-26 -104 -18 -63 -17 -78 0 -102 14 -19 15 -19 50 0 20 11 36 25 36 32 0 8 11
21 25 30 14 9 25 23 25 31 0 17 5 23 95 120 112 122 147 153 183 169 18 7 51
27 71 43 21 17 57 35 81 40 23 5 54 21 69 35 34 33 145 52 212 37 24 -6 62
-11 85 -11 30 0 47 -6 64 -25 13 -14 29 -25 36 -25 6 0 17 -7 24 -15 7 -8 31
-23 54 -33 46 -21 61 -36 69 -72 4 -18 17 -30 42 -39 19 -7 35 -18 35 -24 0
-26 141 -50 155 -27 3 6 13 10 21 10 9 0 22 6 30 14 26 26 93 29 159 7 33 -11
67 -21 76 -21 9 0 24 -11 32 -23 20 -31 76 -87 87 -87 4 0 11 -11 14 -25 4
-14 11 -25 16 -25 6 0 10 -5 10 -12 0 -6 9 -21 19 -32 21 -23 61 -136 61 -173
0 -14 5 -34 12 -46 6 -12 13 -74 15 -137 5 -155 4 -146 15 -224 4 -39 15 -77
23 -86 9 -10 13 -33 10 -74 l-4 -59 36 42 c20 22 42 41 49 41 8 0 21 11 30 25
9 14 22 25 28 25 7 0 33 29 59 65 l47 65 0 173 c0 127 -4 187 -16 227 -8 30
-16 65 -17 78 -1 13 -11 33 -23 45 -11 12 -26 41 -32 65 -7 23 -17 42 -22 42
-6 0 -10 8 -10 19 0 10 -6 24 -14 30 -8 7 -17 23 -20 36 -4 14 -11 25 -16 25
-6 0 -10 9 -10 20 0 13 -10 24 -25 30 -14 5 -25 15 -25 21 0 15 -70 79 -87 79
-7 0 -13 5 -13 10 0 6 -21 20 -46 30 -26 11 -59 30 -75 41 -16 11 -45 22 -63
23 -19 2 -53 13 -75 25 -49 25 -80 26 -147 6 -71 -22 -88 -19 -152 23 -31 20
-66 43 -77 50 -11 7 -34 22 -52 33 -17 11 -34 26 -37 34 -6 16 -85 59 -93 51
-3 -3 -20 1 -39 9 -18 7 -77 19 -131 25 -54 6 -105 13 -114 16 -8 2 -17 2 -20
0z"/>
<path d="M4040 6579 c-25 -5 -74 -13 -110 -18 -110 -16 -211 -51 -221 -78 -5
-13 -15 -23 -23 -23 -9 0 -21 -10 -27 -22 -7 -12 -20 -29 -31 -38 -10 -8 -29
-37 -42 -65 -38 -84 -4 -154 50 -100 14 14 31 25 37 25 7 0 18 5 23 10 6 6 49
15 95 20 46 5 122 16 169 25 91 18 364 22 384 6 6 -5 32 -11 57 -15 25 -4 69
-16 98 -26 28 -11 65 -20 81 -20 17 0 58 -11 92 -25 34 -14 71 -25 82 -25 12
0 26 -8 33 -19 12 -19 163 -111 183 -111 5 0 10 -6 10 -14 0 -8 21 -24 46 -36
27 -14 49 -32 55 -47 5 -14 18 -27 29 -30 10 -3 26 -16 35 -29 8 -13 22 -24
30 -24 8 0 17 -11 21 -24 23 -92 281 -30 300 72 3 17 10 32 14 32 16 0 111
-103 128 -138 17 -36 18 -37 83 -40 40 -2 76 1 90 8 33 17 79 71 79 93 0 9 7
17 15 17 17 0 20 16 5 25 -5 3 -10 19 -10 36 0 16 -4 29 -10 29 -5 0 -10 7
-10 15 0 8 -7 15 -15 15 -9 0 -19 8 -23 18 -25 57 -56 92 -92 102 -20 5 -48
18 -61 29 -52 40 -157 58 -220 37 -24 -8 -63 -17 -86 -21 -24 -4 -43 -11 -43
-15 0 -5 -9 -11 -19 -15 -14 -4 -29 4 -53 27 -49 49 -114 98 -129 98 -25 0
-117 59 -124 79 -7 22 -56 51 -96 56 -30 4 -80 26 -124 54 -16 11 -47 20 -68
20 -51 1 -128 21 -148 37 -8 8 -38 14 -65 14 -27 0 -65 4 -84 9 -50 13 -337
20 -390 10z"/>
<path d="M6135 6130 c-66 -21 -85 -35 -90 -65 -8 -40 1 -153 12 -168 5 -7 9
-30 8 -52 -3 -69 14 -117 52 -150 59 -51 82 -51 154 -2 30 20 63 97 54 126 -3
11 -1 22 4 26 11 6 4 93 -9 110 -5 6 -8 27 -8 47 0 30 -7 43 -33 65 -65 56
-108 74 -144 63z"/>
<path d="M1435 5933 c-16 -9 -32 -19 -35 -23 -3 -3 -13 -9 -23 -13 -24 -9 -35
-44 -47 -146 -8 -74 -7 -94 5 -117 8 -16 15 -36 15 -45 0 -9 9 -28 20 -42 11
-14 20 -32 20 -40 0 -7 10 -22 21 -33 12 -10 28 -34 36 -51 9 -22 20 -33 33
-33 12 0 24 -10 29 -22 12 -30 184 -117 233 -118 96 -3 165 16 210 57 29 26
22 -4 -11 -46 -45 -57 -81 -152 -81 -215 0 -47 4 -57 32 -85 17 -17 38 -31 45
-31 18 0 83 32 83 42 0 4 9 8 19 8 11 0 23 5 26 11 4 5 18 14 31 19 18 7 24
17 24 40 0 16 4 30 10 30 5 0 9 4 7 9 -1 5 9 22 23 38 14 16 33 43 42 60 25
43 79 103 94 103 7 0 16 10 19 23 14 49 28 77 38 77 15 0 177 171 177 186 0 7
10 14 23 18 27 6 50 50 42 77 -4 11 -20 26 -36 35 -28 14 -37 14 -97 -1 -37
-9 -78 -24 -92 -33 -14 -9 -41 -24 -60 -33 -19 -9 -41 -23 -49 -32 -7 -10 -24
-17 -36 -17 -12 0 -33 -8 -46 -18 -13 -10 -32 -21 -41 -25 -10 -3 -18 -14 -18
-23 0 -17 -20 -42 -78 -101 -40 -39 -44 -40 -57 -10 -9 20 -16 22 -97 22 -81
0 -88 2 -112 28 -14 15 -32 27 -41 27 -8 0 -20 11 -25 25 -5 14 -16 25 -24 25
-15 0 -36 55 -36 93 0 9 -4 17 -8 17 -17 0 -38 56 -32 85 4 17 5 43 2 58 -3
16 1 39 8 53 10 18 11 30 3 47 -6 12 -14 30 -17 40 -4 14 -17 17 -73 17 -43
-1 -79 -7 -98 -17z"/>
<path d="M6790 5876 c-41 -8 -106 -17 -144 -21 -54 -5 -73 -12 -91 -31 -12
-13 -26 -24 -31 -24 -14 -1 -64 -122 -64 -155 0 -23 7 -35 29 -48 35 -21 57
-22 68 -3 5 10 30 15 78 17 44 2 76 8 88 18 25 21 142 17 176 -6 38 -25 156
-24 196 2 45 30 54 46 55 96 0 38 -6 52 -36 87 -24 28 -44 42 -60 42 -14 0
-35 7 -48 15 -32 21 -128 26 -216 11z"/>
<path d="M705 5296 c-91 -57 -104 -73 -119 -160 -13 -73 -7 -194 12 -246 3 -8
4 -21 3 -27 -1 -7 3 -22 9 -34 14 -25 21 -53 25 -99 2 -19 7 -64 11 -100 12
-102 12 -131 2 -190 -10 -56 -45 -109 -82 -123 -10 -4 -20 -16 -23 -27 -3 -11
-11 -20 -18 -20 -8 0 -20 -6 -27 -14 -8 -7 -30 -21 -48 -31 -42 -21 -69 -53
-70 -81 0 -18 8 -22 48 -28 49 -6 112 13 112 35 0 5 9 9 20 9 11 0 23 7 26 15
4 8 14 15 23 15 18 1 81 54 81 70 0 5 6 10 13 10 15 1 65 79 78 122 5 18 11
58 14 88 5 60 -12 253 -25 285 -4 11 -13 45 -19 75 -6 30 -17 84 -26 120 -20
88 -11 153 27 196 51 58 112 45 206 -42 23 -22 42 -44 42 -50 0 -5 18 -28 40
-52 22 -24 40 -49 40 -58 0 -8 4 -22 9 -32 5 -9 14 -37 21 -62 7 -25 17 -56
22 -70 6 -14 12 -70 15 -125 5 -125 13 -137 75 -106 47 22 119 113 132 167 4
16 14 36 22 45 8 9 21 49 29 90 16 82 35 149 45 164 4 6 10 22 14 37 3 15 15
30 26 33 11 3 20 12 20 20 0 7 12 20 26 29 21 14 25 24 22 54 -3 34 -6 37 -37
40 -55 5 -99 -6 -106 -28 -4 -11 -13 -20 -21 -20 -8 0 -14 -6 -14 -14 0 -7 -7
-19 -15 -26 -8 -7 -15 -21 -15 -31 0 -9 -7 -24 -15 -33 -8 -8 -15 -21 -15 -28
0 -8 -4 -18 -9 -23 -4 -6 -14 -45 -21 -87 -7 -43 -19 -83 -26 -89 -11 -9 -14
-7 -14 11 0 12 -6 36 -14 53 -7 18 -20 48 -27 67 -7 19 -23 49 -36 66 -13 17
-23 35 -23 40 0 14 -129 144 -144 144 -5 0 -23 10 -40 23 -32 23 -114 51 -176
60 -27 4 -46 -2 -85 -27z"/>
<path d="M9078 5115 c-7 -9 -18 -22 -25 -29 -7 -8 -11 -15 -9 -17 2 -2 0 -24
-4 -49 -10 -70 17 -113 91 -140 54 -21 64 -21 126 -10 70 13 116 41 107 65 -3
8 -1 22 5 33 8 16 6 30 -11 64 -22 45 -69 78 -113 78 -13 0 -27 5 -30 10 -10
17 -122 12 -137 -5z"/>
<path d="M8095 5113 c-11 -3 -27 -12 -36 -19 -11 -10 -46 -16 -110 -18 -52 -1
-103 -7 -114 -13 -36 -19 -212 -24 -284 -9 -36 8 -109 17 -161 20 -53 3 -109
10 -125 15 -17 4 -36 6 -42 4 -30 -10 -2 -134 39 -175 10 -10 18 -22 18 -28 0
-5 5 -10 11 -10 6 0 25 -11 43 -25 24 -18 45 -25 80 -25 48 0 126 -20 126 -32
0 -4 -12 -13 -27 -20 -21 -10 -29 -23 -35 -55 -3 -23 -3 -54 1 -70 l8 -28 107
1 c104 1 152 13 226 55 42 24 105 49 123 49 24 0 107 40 107 52 0 4 6 8 13 8
8 0 22 9 32 20 10 11 24 20 32 20 15 0 63 47 63 61 0 5 14 24 31 44 28 32 31
41 27 84 -8 80 -65 115 -153 94z"/>
<path d="M90 5072 c-8 -2 -30 -11 -47 -19 l-33 -15 0 -184 c0 -157 2 -184 15
-184 8 0 15 -4 15 -8 0 -4 20 -21 45 -36 25 -16 45 -32 45 -37 0 -4 26 -15 58
-25 31 -10 66 -23 77 -31 11 -7 28 -13 38 -13 10 0 37 -9 60 -21 23 -11 65
-23 94 -26 47 -5 54 -3 76 21 31 33 41 91 22 120 -8 11 -15 39 -15 63 0 24 -6
45 -13 50 -7 4 -24 33 -36 63 -13 30 -32 64 -42 75 -46 49 -79 89 -79 96 0 4
-13 12 -30 17 -16 6 -37 20 -47 31 -9 12 -26 21 -36 21 -9 0 -34 7 -55 16 -49
21 -94 32 -112 26z m58 -133 c46 -11 73 -32 173 -133 22 -22 39 -45 39 -52 0
-14 44 -98 64 -123 9 -12 3 -13 -42 -7 -65 8 -164 49 -202 82 -81 71 -110 103
-110 117 0 9 -5 17 -11 17 -18 0 -1 81 19 96 21 16 14 16 70 3z"/>
<path d="M1633 5041 c-8 -28 -7 -45 4 -64 38 -73 34 -238 -8 -316 -10 -20 -19
-43 -19 -51 0 -8 -11 -33 -25 -55 -13 -22 -25 -48 -25 -58 0 -10 -6 -20 -14
-23 -8 -3 -20 -20 -27 -37 -7 -18 -22 -44 -34 -58 -12 -15 -28 -54 -34 -87
-18 -80 -3 -124 49 -147 35 -16 46 -16 171 0 75 10 156 15 185 11 128 -15 202
-82 206 -187 1 -34 -4 -44 -33 -69 -19 -16 -45 -33 -59 -36 -14 -4 -34 -12
-45 -18 -39 -23 -131 -37 -257 -39 -111 -2 -130 -5 -155 -23 -15 -11 -43 -26
-61 -32 -17 -6 -56 -27 -86 -46 -29 -20 -65 -36 -79 -36 -18 0 -34 -12 -56
-42 -17 -23 -31 -50 -31 -60 0 -10 -4 -18 -10 -18 -5 0 -10 -6 -10 -14 0 -8
-6 -21 -14 -28 -8 -8 -16 -23 -18 -34 -2 -13 -12 -19 -28 -19 -23 0 -25 4 -32
65 -14 133 -18 156 -33 205 -18 60 -38 91 -87 134 -37 32 -39 32 -120 28 -46
-2 -114 -9 -153 -16 -38 -7 -86 -14 -105 -15 -19 -2 -54 -7 -78 -11 -24 -4
-51 -9 -60 -10 -9 -1 -24 -4 -32 -8 -8 -4 -51 -11 -95 -17 -44 -7 -111 -16
-149 -21 -38 -5 -77 -14 -87 -19 -10 -6 -31 -10 -48 -10 l-31 0 0 -61 0 -61
68 7 c37 4 81 11 97 16 17 5 42 9 55 9 36 -1 93 6 110 13 8 3 69 13 135 21
178 23 255 35 265 41 11 7 180 8 187 2 2 -3 6 -40 8 -83 8 -135 22 -248 35
-280 17 -40 56 -63 119 -71 38 -4 57 -2 76 11 27 18 45 14 45 -8 0 -8 7 -19
15 -26 8 -7 24 -32 35 -56 10 -24 25 -44 32 -44 7 0 28 -23 46 -50 17 -28 38
-50 46 -50 8 0 21 -11 30 -25 9 -14 25 -25 35 -25 10 0 30 -11 45 -25 15 -14
30 -25 35 -25 4 0 22 -11 40 -24 41 -30 137 -43 209 -27 39 8 62 7 107 -4 73
-20 86 -19 138 6 40 20 56 38 73 82 3 9 10 17 15 17 13 0 11 138 -2 146 -6 3
-20 26 -31 51 -13 29 -33 52 -61 70 -23 14 -44 29 -47 33 -14 18 -214 84 -238
78 -4 -1 -25 6 -47 16 -53 25 -144 27 -158 5 -10 -16 -13 -15 -39 4 -15 11
-28 28 -28 37 0 9 -9 33 -20 55 -11 22 -20 40 -20 41 0 10 103 74 119 74 12 0
29 4 39 9 9 5 67 14 127 19 61 6 119 13 130 15 11 2 43 8 70 11 65 9 115 25
115 37 0 5 7 9 15 9 21 0 106 67 131 104 30 44 37 71 37 147 0 57 -5 74 -29
113 -16 25 -34 45 -39 46 -6 0 -16 9 -22 19 -7 11 -46 36 -87 55 -58 28 -94
37 -167 45 -56 5 -101 5 -111 0 -9 -5 -36 -9 -60 -9 -24 0 -58 -4 -76 -9 -17
-5 -32 -8 -32 -6 0 8 103 181 116 196 8 8 14 21 14 27 0 6 11 32 25 58 14 26
25 58 25 70 0 13 4 24 9 24 5 0 11 10 13 23 2 17 11 23 37 25 19 2 40 10 48
18 8 7 23 20 34 27 14 10 20 29 24 67 4 48 2 55 -25 80 -17 16 -30 34 -30 41
0 16 -50 69 -65 69 -6 0 -34 23 -62 50 -65 64 -96 67 -110 11z m83 -1684 c4
-4 18 -7 30 -7 29 0 106 -51 128 -85 9 -14 24 -25 34 -25 20 0 92 -94 92 -120
0 -30 -34 -80 -53 -80 -22 0 -127 50 -127 61 0 4 -21 29 -46 55 -25 27 -55 62
-67 78 -12 16 -40 50 -63 75 -40 46 -57 75 -48 84 6 5 110 -26 120 -36z"/>
<path d="M3386 4862 c-32 -4 -60 -27 -63 -51 -1 -9 -7 -30 -14 -48 -11 -27
-11 -37 2 -60 38 -73 114 -105 277 -119 74 -6 85 -5 105 13 12 11 29 22 38 25
17 7 41 95 28 104 -5 3 -9 13 -9 23 0 29 -70 71 -131 78 -30 3 -67 12 -83 21
-30 14 -96 21 -150 14z"/>
<path d="M8850 4814 c-26 -24 -40 -45 -40 -61 0 -13 -13 -51 -30 -85 -16 -33
-30 -66 -30 -74 0 -8 -8 -23 -17 -33 -34 -38 -48 -55 -58 -75 -6 -11 -33 -32
-60 -46 -28 -14 -52 -27 -55 -30 -35 -36 -177 -68 -224 -51 -15 6 -40 11 -56
11 -16 0 -30 5 -32 12 -3 7 -40 11 -114 12 -118 0 -173 -15 -194 -54 -6 -11
-17 -20 -25 -20 -7 0 -17 -10 -21 -22 -4 -13 -15 -32 -26 -43 -89 -95 -94
-103 -93 -142 2 -48 23 -103 40 -103 7 0 18 -7 25 -15 14 -16 65 -21 74 -6 3
5 14 7 24 4 10 -2 29 7 45 21 16 14 32 26 37 26 5 0 25 16 46 35 20 19 44 35
53 36 9 1 90 0 181 -1 192 -2 261 10 363 64 37 20 73 36 80 36 7 0 26 14 42
30 16 17 33 30 38 30 11 0 34 21 99 90 24 24 55 56 70 70 15 14 30 39 34 55 4
17 14 35 23 42 12 9 16 35 18 127 2 113 2 116 -25 144 -57 61 -135 68 -192 16z"/>
<path d="M7026 4598 c-23 -36 -29 -74 -17 -110 9 -27 20 -36 60 -51 86 -30
143 -22 199 31 36 34 41 70 16 120 l-15 32 -115 0 c-107 0 -114 -1 -128 -22z"/>
<path d="M4079 4524 c-18 -4 -31 -16 -42 -42 -23 -53 -13 -105 28 -140 17 -16
34 -36 38 -45 4 -10 18 -22 32 -27 14 -5 25 -13 25 -18 0 -4 13 -15 29 -25 21
-12 51 -17 108 -17 76 0 83 2 141 39 33 22 63 49 67 61 11 33 -3 84 -30 116
-14 16 -25 32 -25 35 0 5 -67 25 -115 33 -11 2 -32 9 -48 15 -31 12 -168 22
-208 15z"/>
<path d="M4860 4445 c-26 -28 -53 -112 -39 -121 5 -3 9 -16 9 -29 0 -35 51
-81 101 -89 82 -13 232 -18 253 -8 12 6 29 13 38 16 26 8 43 82 28 126 -15 44
-46 63 -169 101 -121 38 -189 39 -221 4z"/>
<path d="M7134 4367 c-5 -14 -14 -85 -15 -122 -1 -39 15 -80 38 -98 16 -13 23
-29 23 -52 0 -20 6 -35 15 -39 8 -3 15 -12 15 -21 0 -8 4 -23 9 -33 14 -26 41
-89 41 -95 0 -3 5 -18 12 -34 6 -16 10 -64 9 -112 -3 -75 -7 -93 -38 -150 -19
-36 -36 -68 -38 -69 -2 -2 -23 -8 -46 -13 -52 -12 -66 -23 -84 -65 -14 -33 -5
-104 15 -129 12 -15 15 -105 6 -200 -5 -44 -9 -112 -10 -152 -2 -48 -7 -78
-18 -90 -24 -29 -32 -55 -29 -107 6 -104 73 -154 163 -120 46 18 98 64 98 87
0 8 6 17 13 20 15 5 40 95 36 129 -1 13 4 39 13 58 19 45 32 120 33 195 0 33
4 66 8 73 5 7 7 32 6 56 -3 43 29 116 50 116 11 0 41 46 46 71 2 11 11 26 19
35 17 17 19 23 16 72 -1 17 3 32 8 32 13 0 24 131 12 145 -6 7 -4 20 4 36 17
33 14 81 -7 113 -10 14 -17 43 -17 65 0 22 -4 42 -9 46 -14 8 -41 65 -47 99
-3 17 -16 42 -30 57 -13 14 -24 37 -24 51 0 21 -10 32 -47 54 -27 15 -50 30
-53 33 -13 16 -69 47 -105 58 -52 16 -84 16 -91 0z"/>
<path d="M7607 4248 c-19 -15 -57 -118 -57 -155 0 -14 9 -36 20 -50 11 -14 20
-32 20 -39 0 -16 59 -46 79 -39 9 3 26 24 38 47 23 46 22 85 -3 123 -8 11 -14
30 -14 42 0 21 -45 83 -60 83 -3 0 -14 -6 -23 -12z"/>
<path d="M120 4159 c-117 -15 -110 -9 -110 -95 0 -69 2 -75 18 -68 9 4 44 10
77 12 33 2 65 7 70 12 6 4 22 10 36 13 34 8 126 95 107 102 -36 13 -114 35
-123 34 -5 -1 -39 -5 -75 -10z"/>
<path d="M490 3480 c0 -13 -10 -24 -25 -30 -14 -5 -28 -17 -32 -27 -8 -21 -39
-58 -77 -92 -16 -14 -40 -36 -53 -47 -12 -12 -23 -26 -23 -33 0 -6 -8 -11 -18
-11 -9 0 -28 -10 -42 -23 -14 -13 -33 -26 -42 -30 -10 -3 -18 -10 -18 -14 0
-5 -18 -19 -40 -33 -22 -14 -40 -30 -40 -36 0 -6 -11 -17 -25 -24 -14 -7 -25
-19 -25 -27 0 -7 -4 -13 -10 -13 -6 0 -10 -40 -10 -100 0 -55 4 -100 9 -100 5
0 12 -9 16 -19 6 -20 31 -31 105 -49 59 -14 131 1 187 39 23 16 46 29 52 29 6
0 16 10 22 23 7 12 30 40 51 62 21 22 38 45 38 51 0 7 7 14 15 18 8 3 15 15
15 26 0 11 4 20 9 20 5 0 11 19 14 43 2 23 11 67 19 97 30 106 30 133 3 184
-16 30 -25 63 -25 92 0 40 -2 44 -25 44 -18 0 -25 -5 -25 -20z m-75 -311 c-9
-24 -18 -53 -20 -65 -6 -38 -45 -104 -85 -143 -65 -63 -167 -89 -183 -47 -18
47 43 134 122 172 37 18 75 48 136 109 45 45 53 38 30 -26z"/>
<path d="M1270 3043 c-42 -7 -71 -36 -81 -82 -11 -49 -8 -56 60 -131 l41 -45
73 0 c70 1 75 2 109 36 27 28 35 43 36 77 1 31 -2 42 -13 42 -8 0 -20 9 -27
20 -7 11 -18 20 -25 20 -6 0 -24 11 -40 23 -15 13 -40 27 -55 30 -14 4 -32 8
-40 10 -7 2 -24 2 -38 0z"/>
<path d="M897 2813 c-4 -6 -27 -16 -53 -23 -32 -9 -48 -20 -55 -37 -5 -13 -17
-23 -29 -23 -11 0 -20 -4 -20 -8 0 -5 -18 -16 -40 -25 -22 -10 -58 -25 -81
-34 -30 -13 -42 -23 -46 -45 -3 -16 -15 -34 -27 -40 -25 -13 -47 -34 -70 -71
-10 -15 -24 -27 -31 -27 -7 0 -15 -9 -18 -20 -3 -11 -12 -23 -21 -26 -22 -8
-76 -60 -76 -72 0 -5 -10 -16 -23 -25 -16 -10 -26 -33 -36 -76 -8 -34 -20 -68
-27 -76 -8 -7 -14 -21 -14 -30 0 -33 -20 -52 -60 -59 -22 -3 -40 -11 -40 -16
0 -6 -11 -10 -25 -10 -15 0 -25 -6 -25 -14 0 -8 -16 -20 -35 -27 l-35 -13 0
-522 c0 -424 2 -523 13 -527 8 -3 44 -8 82 -12 l68 -8 -8 44 c-5 24 -9 67 -10
94 -2 53 -21 105 -43 118 -7 5 -10 17 -7 28 4 10 2 19 -4 19 -6 0 -14 12 -17
27 -4 16 -10 33 -14 38 -31 46 -56 245 -30 245 6 0 10 10 10 23 0 13 5 28 12
35 7 7 13 29 15 49 2 28 12 47 42 77 98 101 118 117 151 121 65 8 190 94 190
130 0 8 11 26 25 41 14 15 28 39 32 53 3 14 14 37 25 50 10 13 18 32 18 41 0
10 7 23 15 30 8 7 15 24 15 39 0 17 15 41 44 71 90 94 163 157 211 185 28 15
52 31 55 35 6 8 60 37 83 44 9 3 17 14 17 25 0 13 9 23 23 26 15 4 26 18 35
45 29 93 6 128 -89 136 -40 4 -69 3 -72 -3z"/>
<path d="M6965 2520 c-11 -11 -37 -35 -57 -54 -25 -22 -38 -43 -38 -59 0 -14
-4 -29 -10 -32 -5 -3 -10 -17 -10 -31 0 -15 -6 -24 -15 -24 -8 0 -15 -8 -15
-19 0 -10 -7 -24 -15 -31 -8 -7 -15 -21 -15 -32 0 -26 -17 -58 -49 -89 -14
-14 -37 -40 -51 -58 -25 -32 -148 -121 -167 -121 -6 0 -16 -6 -22 -14 -7 -8
-28 -22 -47 -31 -19 -9 -39 -27 -44 -41 -5 -13 -16 -24 -24 -24 -21 0 -29 -35
-21 -96 5 -43 12 -58 31 -71 26 -17 114 -25 114 -11 0 4 8 8 17 8 41 0 170 55
229 98 17 12 34 22 38 22 16 0 117 86 122 105 8 23 124 165 136 165 4 0 14 15
22 34 8 18 19 37 25 40 5 4 8 13 4 21 -3 9 2 26 11 40 9 13 16 40 16 59 0 19
5 38 11 41 6 4 7 19 4 36 -5 20 -3 29 6 29 8 0 7 5 -4 18 -8 9 -18 28 -22 42
-9 32 -89 100 -118 100 -12 0 -31 -9 -42 -20z"/>
<path d="M4780 2326 c-58 -20 -100 -37 -166 -68 -32 -15 -74 -57 -74 -73 0 -9
-10 -15 -22 -15 -13 0 -48 -22 -79 -50 -43 -38 -60 -61 -70 -96 -9 -29 -21
-49 -31 -52 -10 -2 -18 -12 -18 -21 0 -9 -15 -45 -33 -81 -62 -122 -68 -164
-29 -207 53 -59 119 -70 168 -28 16 14 32 25 35 25 4 0 9 10 13 23 3 12 25 49
50 83 24 33 46 68 47 76 4 14 31 50 108 139 18 21 42 39 53 39 19 0 98 71 98
88 0 5 18 12 40 15 71 9 121 81 112 162 -2 23 -12 34 -38 48 -45 22 -84 21
-164 -7z"/>
<path d="M1362 2140 c-18 -11 -42 -20 -53 -20 -11 0 -31 -11 -44 -24 -13 -14
-33 -27 -44 -31 -11 -3 -23 -14 -26 -24 -3 -12 -19 -21 -43 -25 -39 -6 -59
-29 -93 -112 -10 -23 -27 -56 -38 -75 -12 -19 -21 -41 -21 -50 0 -9 -7 -19
-15 -23 -8 -3 -15 -12 -15 -21 0 -8 -4 -15 -10 -15 -5 0 -10 -11 -10 -23 0
-25 -25 -83 -40 -92 -5 -3 -6 -15 -1 -28 6 -15 4 -31 -5 -47 -7 -14 -13 -36
-14 -50 0 -27 -45 -74 -80 -85 -11 -4 -20 -11 -20 -16 0 -5 -6 -9 -13 -9 -8 0
-28 -18 -45 -39 -18 -22 -45 -48 -62 -57 -17 -10 -32 -30 -35 -45 -4 -15 -12
-33 -20 -39 -7 -6 -16 -29 -20 -50 -5 -29 -12 -40 -27 -42 -15 -2 -26 -16 -36
-46 -8 -24 -20 -46 -28 -49 -8 -3 -14 -17 -14 -33 0 -15 -11 -42 -25 -61 -13
-19 -31 -49 -39 -67 -14 -31 -17 -32 -32 -18 -8 9 -24 16 -35 16 -11 0 -41 10
-67 21 -62 29 -137 30 -182 3 l-35 -20 1 -89 1 -89 39 -33 c23 -19 50 -33 66
-33 14 0 39 -11 55 -23 25 -21 36 -23 108 -20 44 2 114 3 157 2 57 0 78 3 85
14 4 8 17 16 28 18 15 3 21 13 23 39 3 36 31 100 43 100 4 0 10 14 14 30 4 17
15 35 26 40 10 6 19 15 19 21 0 5 10 26 23 47 13 20 32 57 42 82 11 25 22 47
25 50 3 3 12 18 20 34 8 16 34 48 58 72 23 23 42 50 42 58 0 9 11 22 25 28 14
6 25 15 25 19 0 4 21 23 48 40 26 18 49 36 50 41 2 4 12 8 22 8 20 0 40 52 44
112 1 15 9 35 18 45 11 12 16 38 17 77 0 49 5 64 26 86 16 16 25 38 25 57 0
17 7 36 15 43 9 7 14 19 11 25 -2 7 4 27 15 44 10 17 19 37 19 43 0 6 20 35
45 64 26 29 45 62 45 76 0 13 17 42 41 68 23 25 43 55 45 67 9 51 -63 70 -124
33z"/>
<path d="M4041 1577 c-39 -19 -61 -58 -63 -108 -3 -62 20 -95 74 -110 24 -6
53 -15 66 -20 28 -11 95 6 116 30 7 9 17 37 20 63 7 47 7 47 -36 77 -24 17
-47 34 -53 38 -57 44 -84 51 -124 30z"/>
<path d="M6393 1568 c-41 -6 -63 -14 -63 -23 0 -7 -5 -15 -11 -17 -18 -6 -14
-119 5 -130 8 -5 21 -14 28 -22 40 -39 164 -44 207 -8 10 10 29 25 40 34 34
29 22 108 -17 108 -9 0 -23 9 -30 20 -11 18 -75 52 -91 49 -3 -1 -34 -6 -68
-11z"/>
<path d="M6085 1272 c-11 -4 -35 -16 -52 -27 -26 -15 -33 -26 -33 -50 0 -21
-9 -40 -25 -55 -19 -18 -25 -34 -25 -66 0 -24 -4 -45 -9 -48 -5 -3 -12 -22
-16 -42 -4 -23 -13 -38 -25 -41 -10 -3 -26 -23 -36 -45 -24 -53 -70 -96 -112
-104 -22 -4 -37 -15 -44 -30 -7 -15 -20 -24 -35 -24 -18 0 -23 -5 -23 -25 0
-16 -19 -43 -55 -80 -37 -38 -55 -65 -55 -82 0 -32 -17 -63 -35 -63 -8 0 -15
-5 -15 -10 0 -15 -61 -80 -74 -80 -6 0 -22 -13 -36 -29 -16 -18 -58 -43 -112
-65 -110 -45 -138 -72 -138 -131 0 -25 5 -45 10 -45 6 0 21 -9 33 -21 20 -19
30 -21 107 -16 111 7 234 54 297 114 12 12 30 23 40 25 10 2 22 13 28 25 5 12
20 27 32 34 13 7 23 18 23 25 0 6 7 15 15 18 9 3 22 20 30 39 7 18 23 41 34
51 12 11 21 28 21 38 0 10 7 21 15 24 8 4 27 28 42 55 17 32 32 48 40 45 27
-11 88 24 107 59 11 20 27 35 37 35 10 0 32 12 49 26 26 22 30 31 25 55 -6 25
-3 29 14 29 15 0 23 10 31 38 5 22 19 49 30 62 11 13 20 36 20 52 0 16 11 44
25 62 20 26 26 47 28 94 1 33 5 64 9 67 15 15 -27 67 -73 90 -48 25 -76 29
-114 17z"/>
<path d="M3822 1238 c-7 -7 -12 -18 -12 -25 0 -7 -9 -13 -20 -13 -13 0 -31
-16 -49 -45 -37 -58 -47 -153 -30 -279 10 -76 17 -96 39 -119 15 -15 37 -48
50 -74 12 -25 32 -55 42 -65 11 -11 26 -45 34 -76 8 -31 19 -58 24 -60 6 -2
10 -24 10 -49 0 -34 7 -55 26 -80 14 -18 30 -33 37 -33 16 -1 62 -41 69 -62 4
-9 19 -22 35 -31 15 -8 42 -22 58 -31 17 -9 35 -16 41 -16 6 0 38 -12 70 -27
58 -27 63 -28 270 -30 185 -2 218 -4 265 -22 30 -12 66 -21 81 -21 41 0 113
50 137 95 43 81 20 105 -97 105 -60 0 -91 5 -119 19 -21 10 -67 22 -102 26
-36 3 -77 13 -93 21 -15 8 -28 12 -28 10 0 -3 -16 2 -35 10 -19 7 -63 14 -97
14 -74 0 -108 8 -108 24 0 7 -14 19 -32 27 -17 8 -36 23 -42 34 -6 10 -21 28
-33 38 -19 15 -23 28 -23 78 0 46 -3 59 -15 59 -9 0 -15 9 -15 21 0 20 -14 42
-72 113 -16 19 -28 40 -28 49 0 8 -7 17 -15 21 -8 3 -12 11 -9 19 3 8 -2 20
-11 27 -8 7 -15 28 -15 49 0 20 -6 47 -13 61 -9 18 -10 35 -4 60 5 19 11 58
14 87 4 46 2 55 -21 78 -22 21 -34 25 -89 25 -36 0 -68 -5 -75 -12z"/>
<path d="M6428 1203 c-21 -5 -25 -72 -6 -91 18 -18 85 -15 96 4 14 24 -7 84
-29 84 -9 0 -23 2 -31 4 -7 2 -21 2 -30 -1z"/>
<path d="M6233 826 c-29 -30 -53 -57 -53 -60 0 -3 -9 -15 -20 -26 -11 -11 -20
-26 -20 -34 0 -8 -9 -17 -20 -21 -15 -5 -27 -29 -46 -93 -15 -48 -34 -93 -43
-100 -9 -7 -15 -24 -13 -37 2 -14 -1 -25 -6 -25 -24 0 -35 -197 -14 -237 7
-12 12 -31 12 -42 0 -12 4 -21 10 -21 6 0 8 -26 5 -65 l-5 -65 151 0 152 0 -7
39 c-3 22 -2 42 4 46 5 3 6 14 0 28 -5 12 -14 51 -20 87 -7 36 -16 71 -22 77
-13 16 -2 93 18 131 7 15 14 32 14 38 0 6 9 18 20 25 15 11 22 34 31 114 19
153 16 231 -8 263 -32 44 -61 38 -120 -22z"/>
<path d="M284 494 c-65 -15 -77 -109 -24 -187 26 -39 37 -46 97 -63 37 -10 96
-18 129 -18 55 0 65 4 88 29 23 24 26 35 21 77 -6 63 -27 90 -100 128 -59 31
-155 46 -211 34z"/>
<path d="M210 133 c-30 -8 -59 -18 -63 -22 -4 -5 -14 -31 -22 -60 l-13 -51
149 0 c102 0 149 3 149 11 0 22 -31 77 -58 102 -36 33 -75 39 -142 20z"/>
</g>
</svg>
